<svg width="57" height="56" viewBox="0 0 57 56" fill="none" xmlns="http://www.w3.org/2000/svg">
<path d="M3 52.6484H54" stroke="#292D32" stroke-width="5" stroke-miterlimit="10" stroke-linecap="round" stroke-linejoin="round"/>
<path d="M5.55 21.9719C5.55 20.4164 6.2895 18.9375 7.5135 17.9685L25.3635 4.071C27.1995 2.643 29.775 2.643 31.6365 4.071L49.4865 17.943C50.736 18.912 51.45 20.3909 51.45 21.9719V52.6484" stroke="#292D32" stroke-width="5" stroke-miterlimit="10" stroke-linecap="round" stroke-linejoin="round"/>
<path d="M5.4205 52.6484L5.497 32.3249" stroke="#292D32" stroke-width="5" stroke-miterlimit="10" stroke-linecap="round" stroke-linejoin="round"/>
<path d="M31.05 39.8984H25.95C23.8335 39.8984 22.125 41.6069 22.125 43.7234V52.6484H34.875V43.7234C34.875 41.6069 33.1665 39.8984 31.05 39.8984Z" stroke="#292D32" stroke-width="5" stroke-miterlimit="10" stroke-linejoin="round"/>
<path d="M22.125 31.6109H17.025C15.6225 31.6109 14.475 30.4634 14.475 29.0609V25.2359C14.475 23.8334 15.6225 22.6859 17.025 22.6859H22.125C23.5275 22.6859 24.675 23.8334 24.675 25.2359V29.0609C24.675 30.4634 23.5275 31.6109 22.125 31.6109Z" stroke="#292D32" stroke-width="5" stroke-miterlimit="10" stroke-linejoin="round"/>
<path d="M39.975 31.6109H34.875C33.4725 31.6109 32.325 30.4634 32.325 29.0609V25.2359C32.325 23.8334 33.4725 22.6859 34.875 22.6859H39.975C41.3775 22.6859 42.525 23.8334 42.525 25.2359V29.0609C42.525 30.4634 41.3775 31.6109 39.975 31.6109Z" stroke="#292D32" stroke-width="5" stroke-miterlimit="10" stroke-linejoin="round"/>
<path d="M46.3508 14.3984L46.2743 6.74841H35.0543" stroke="#292D32" stroke-width="5" stroke-miterlimit="10" stroke-linecap="round" stroke-linejoin="round"/>
</svg>
