<svg width="51" height="50" viewBox="0 0 51 50" fill="none" xmlns="http://www.w3.org/2000/svg">
<path d="M23.9111 47.6182C10.7308 47.6182 0 36.9331 0 23.8091C0 10.6851 10.7308 0 23.9111 0C37.0914 0 47.8222 10.6851 47.8222 23.8091C47.8222 36.9331 37.0914 47.6182 23.9111 47.6182ZM23.9111 3.48426C12.6437 3.48426 3.49919 12.613 3.49919 23.8091C3.49919 35.0052 12.6437 44.1339 23.9111 44.1339C35.1785 44.1339 44.323 35.0052 44.323 23.8091C44.323 12.613 35.1785 3.48426 23.9111 3.48426Z" fill="#292D32"/>
<path d="M48.4064 49.9408C47.9631 49.9408 47.5199 49.7782 47.17 49.4298L42.5044 44.7841C41.8279 44.1105 41.8279 42.9955 42.5044 42.3219C43.1809 41.6483 44.3006 41.6483 44.9772 42.3219L49.6427 46.9676C50.3192 47.6412 50.3192 48.7562 49.6427 49.4298C49.2928 49.7782 48.8496 49.9408 48.4064 49.9408Z" fill="#292D32"/>
</svg>
